<svg aria-hidden="true" style="position:absolute;width:0;height:0;overflow:hidden" xmlns="http://www.w3.org/2000/svg">
	<defs>
		<symbol id="icon-back" viewBox="0 0 18 32">
			<path d="M16.045 0 16-.001a1.77 1.77 0 0 0-1.226.491l.001-.001L1.844 12.774c-1.41 1.339-1.466 3.623-.125 5.031l12.993 13.642a1.774 1.774 0 0 0 2.514.062l-.001.001a1.774 1.774 0 0 0 .062-2.514l.001.001L4.291 15.351 17.225 3.066a1.774 1.774 0 0 0 .062-2.514l.001.001a1.774 1.774 0 0 0-1.241-.552h-.002z" />
		</symbol>
		<symbol id="icon-icon-change" viewBox="0 0 32 32">
			<path d="M8 14.667a1.333 1.333 0 0 0 0 2.666h16a1.333 1.333 0 0 0 0-2.666zm8-8c-.736 0-1.333.597-1.333 1.333v16a1.333 1.333 0 0 0 2.666 0V8c0-.736-.597-1.333-1.333-1.333zM5.333 0C2.401 0 0 2.402 0 5.333v21.333c0 2.932 2.402 5.333 5.333 5.333h21.333c2.932 0 5.333-2.402 5.333-5.333V5.333C31.999 2.401 29.597 0 26.666 0zm0 2.667h21.333c1.5 0 2.667 1.166 2.667 2.667v21.333c0 1.5-1.166 2.667-2.667 2.667H5.333a2.633 2.633 0 0 1-2.667-2.667V5.334c0-1.5 1.166-2.667 2.667-2.667z" />
		</symbol>
		<symbol id="icon-icon-changepencil" viewBox="0 0 32 32">
			<path d="M21.719 6.667a3.614 3.614 0 0 0-2.557 1.06L8.269 18.62a1.329 1.329 0 0 0-.341.582l-.002.009-1.211 4.438a1.333 1.333 0 0 0 1.647 1.636l-.009.002 4.438-1.211c.232-.065.432-.184.591-.344l10.893-10.893a3.612 3.612 0 0 0-1.172-5.896 3.608 3.608 0 0 0-1.383-.276zm0 2.666a.94.94 0 0 1 .669.279.953.953 0 0 1 .279.669.955.955 0 0 1-.279.672L11.745 21.596l-1.844.503.503-1.844L21.047 9.612a.953.953 0 0 1 .672-.279zM5.333 0C2.401 0 0 2.402 0 5.333v21.333c0 2.932 2.402 5.333 5.333 5.333h21.333c2.932 0 5.333-2.402 5.333-5.333V5.333C31.999 2.401 29.597 0 26.666 0zm0 2.667h21.333c1.5 0 2.667 1.166 2.667 2.667v21.333c0 1.5-1.166 2.667-2.667 2.667H5.333a2.633 2.633 0 0 1-2.667-2.667V5.334c0-1.5 1.166-2.667 2.667-2.667z" />
		</symbol>
		<symbol id="icon-Vector-1" viewBox="0 0 36 32">
			<path d="M10.198.889c-2.683 0-5.261 1.017-7.181 2.851S0 8.089 0 10.716s1.098 5.138 3.017 6.972l1.622 1.552 11.91 11.378c.319.305.752.493 1.229.493s.91-.188 1.23-.494l-.001.001 13.531-12.931c.95-.908 1.71-1.991 2.229-3.188s.788-2.484.788-3.785-.269-2.591-.788-3.788c-.519-1.197-1.278-2.279-2.229-3.188s-2.074-1.627-3.306-2.115C28 1.135 26.683.887 25.354.887s-2.643.248-3.875.736a10.253 10.253 0 0 0-3.309 2.115l-.392.375-.396-.375C15.463 1.904 12.881.887 10.198.887zm0 3.555c1.784 0 3.49.681 4.729 1.865l1.622 1.552c.319.305.752.493 1.229.493s.91-.188 1.23-.494l-.001.001 1.622-1.552a6.68 6.68 0 0 1 2.156-1.375 6.975 6.975 0 0 1 5.138 0c.812.321 1.547.789 2.16 1.375s1.096 1.276 1.424 2.031a5.974 5.974 0 0 1 0 4.747 6.254 6.254 0 0 1-1.424 2.031L17.777 26.875 5.471 15.118c-1.239-1.184-1.917-2.761-1.917-4.403s.677-3.222 1.917-4.406c1.239-1.184 2.942-1.865 4.726-1.865z" />
		</symbol>
		<symbol id="icon-icon-home" viewBox="0 0 29 32">
			<path d="M10 14.667c-.736 0-1.333.597-1.333 1.333v14.667a1.333 1.333 0 0 0 2.666 0V17.334h5.333v13.333a1.333 1.333 0 0 0 2.666 0V16c0-.736-.597-1.333-1.333-1.333zM13.854.276.521 10.544c-.317.246-.52.626-.521 1.055v16.136c0 1.135.456 2.222 1.263 3.021s1.898 1.245 3.034 1.245h20.74c1.135 0 2.227-.446 3.034-1.245s1.263-1.886 1.263-3.021V11.6a1.329 1.329 0 0 0-.518-1.052l-.003-.002L15.48.278a1.331 1.331 0 0 0-1.629.002l.003-.002zm.813 2.74 12 9.24v15.479c0 .421-.167.824-.471 1.125h-.002c-.305.302-.72.474-1.156.474H4.298c-.436 0-.854-.172-1.159-.474s-.471-.704-.471-1.125V12.256z" />
		</symbol>
		<symbol id="icon-icon-filter" viewBox="0 0 37 32">
			<path d="M2.286 0A2.286 2.286 0 0 0 .495 3.706l-.004-.005 12.308 15.594v10.42a2.286 2.286 0 0 0 2.286 2.286h6.402a2.286 2.286 0 0 0 2.286-2.286v-10.42L36.081 3.701A2.286 2.286 0 0 0 34.287 0zM7 4.571h22.571l-9.879 12.513a2.272 2.272 0 0 0-.491 1.416V27.428h-1.83V18.5c0-.537-.185-1.03-.495-1.42l.004.005z" />
		</symbol>
		<symbol id="icon-icon-catalog" viewBox="0 0 46 32">
			<path d="M12.444 28.444h32c.985 0 1.778.793 1.778 1.778S45.429 32 44.444 32h-32c-.985 0-1.778-.793-1.778-1.778s.793-1.778 1.778-1.778zm-10.666 0c.985 0 1.778.793 1.778 1.778S2.763 32 1.778 32 0 31.207 0 30.222s.793-1.778 1.778-1.778zm10.666-14.222h32c.985 0 1.778.793 1.778 1.778s-.793 1.778-1.778 1.778h-32c-.985 0-1.778-.793-1.778-1.778s.793-1.778 1.778-1.778zm-10.666 0c.985 0 1.778.793 1.778 1.778s-.793 1.778-1.778 1.778S0 16.985 0 16s.793-1.778 1.778-1.778zM12.444 0h32c.985 0 1.778.793 1.778 1.778s-.793 1.778-1.778 1.778h-32c-.985 0-1.778-.793-1.778-1.778S11.459 0 12.444 0zM1.778 0c.985 0 1.778.793 1.778 1.778s-.793 1.778-1.778 1.778S0 2.763 0 1.778.793 0 1.778 0z" />
		</symbol>
		<symbol id="icon-icon-basket" viewBox="0 0 32 32">
			<path d="M1.333.667a1.333 1.333 0 0 0 0 2.666H5.56l3.37 17.956c.176.943.659 1.803 1.385 2.427s1.661.97 2.62.951h12.904c.959.02 1.892-.326 2.62-.951s1.21-1.485 1.385-2.43c-.002.007-.001.004 0 .002l.003-.009L31.98 9.347a1.333 1.333 0 0 0-1.312-1.567H9.108l-1.13-6.023A1.337 1.337 0 0 0 6.668.668zm8.274 9.778h19.466l-1.852 10.354c-.068.365-.252.681-.5.893s-.536.313-.828.307H12.879h.001c-.292.006-.581-.095-.828-.307s-.432-.528-.5-.893l-.003-.003zM25.333 26c-1.457 0-2.667 1.21-2.667 2.667s1.21 2.667 2.667 2.667c1.457 0 2.667-1.21 2.667-2.667S26.79 26 25.333 26zM12 26c-1.457 0-2.667 1.21-2.667 2.667s1.21 2.667 2.667 2.667c1.457 0 2.667-1.21 2.667-2.667S13.457 26 12 26z" />
		</symbol>
		<symbol id="icon-icon-reboot" viewBox="0 0 35 32">
			<path d="M16.844.156a15.803 15.803 0 0 0-8.997 4.526L.455 11.699a1.451 1.451 0 0 0-.053 2.055l-.001-.001a1.451 1.451 0 0 0 2.055.053l-.001.001 7.426-7.045.031-.031c1.988-2.004 4.564-3.299 7.341-3.693s5.604.132 8.06 1.503c2.456 1.371 4.405 3.513 5.554 6.105s1.434 5.494.81 8.264c-.624 2.77-2.121 5.256-4.264 7.088s-4.817 2.908-7.616 3.071a12.827 12.827 0 0 1-7.909-2.168 1.453 1.453 0 0 0-2.017.39l-.003.005a1.453 1.453 0 0 0 .39 2.017l.005.003c2.862 1.924 6.27 2.859 9.705 2.659s6.712-1.522 9.335-3.764c2.624-2.242 4.452-5.282 5.213-8.662s.414-6.918-.989-10.082c-1.403-3.164-3.786-5.786-6.795-7.466S20.252-.327 16.846.157zM1.455 1.455C.652 1.455 0 2.106 0 2.91v10.182c0 .803.651 1.454 1.455 1.455h10.182a1.455 1.455 0 0 0 0-2.91H2.91V2.91c0-.803-.651-1.455-1.455-1.455z" />
		</symbol>
		<symbol id="icon-icon-profile" viewBox="0 0 29 32">
			<path d="M14 0C9.598 0 6 3.598 6 8s3.598 8 8 8 8-3.598 8-8-3.598-8-8-8zm0 2.667c2.961 0 5.333 2.372 5.333 5.333S16.961 13.333 14 13.333c-2.961 0-5.333-2.372-5.333-5.333S11.039 2.667 14 2.667zM8 20c-2.098 0-4.117.773-5.625 2.18v.002C.867 23.589 0 25.526 0 27.554v3.112a1.333 1.333 0 0 0 2.666 0v-3.112c0-1.272.536-2.498 1.529-3.424S6.561 22.666 8 22.666h13.333c1.439 0 2.812.537 3.805 1.464s1.529 2.153 1.529 3.424v3.112a1.333 1.333 0 0 0 2.666 0v-3.112c0-2.029-.867-3.965-2.375-5.372S23.431 20 21.333 20z" />
		</symbol>
		<symbol id="icon-search" viewBox="0 0 32 32">
			<path d="M23.347 21.569c-.491 0-.935.199-1.257.521-.322.322-.521.766-.521 1.257s.199.935.521 1.257l6.875 6.875c.322.322.766.521 1.257.521s.935-.199 1.257-.521c.322-.322.521-.766.521-1.257s-.199-.935-.521-1.257l-6.875-6.875a1.771 1.771 0 0 0-1.257-.521zM14.42 0C6.477 0 0 6.477 0 14.42s6.477 14.42 14.42 14.42 14.42-6.477 14.42-14.42S22.363 0 14.42 0zm0 3.556c6.021 0 10.865 4.843 10.865 10.865S20.442 25.286 14.42 25.286c-6.021 0-10.865-4.843-10.865-10.865S8.398 3.556 14.42 3.556z" />
		</symbol>
		<symbol id="icon-material-symbols_delete-outline" viewBox="0 0 28 32">
			<path d="M7.944 24.889c-.642 0-1.191-.232-1.649-.697s-.686-1.022-.685-1.674V7.111h-.278a.889.889 0 1 1 0-1.778h4.944v-.889c0-.491.398-.889.889-.889h5.222c.491 0 .889.398.889.889v.889h4.944a.889.889 0 1 1 0 1.778h-.278v15.407c0 .652-.229 1.21-.686 1.675s-1.006.697-1.647.696H7.942zM20.192 7.111H7.556v16h12.636v-16zm-9.525 12.148a.889.889 0 1 0 1.778 0V10.37a.889.889 0 1 0-1.778 0v8.889zm4.444 0a.889.889 0 1 0 1.778 0V10.37a.889.889 0 1 0-1.778 0v8.889z" />
		</symbol>
	</defs>
</svg>
